<svg id="Layer_1" data-name="Layer 1" xmlns="http://www.w3.org/2000/svg" viewBox="0 0 200 200"><defs><style>.cls-1{fill:#2600e3;}.cls-2{fill:#002573;}</style></defs><title>u-mark-c</title><path class="cls-1" d="M100,26a74,74,0,1,1-74,74,74.09,74.09,0,0,1,74-74m0-26A100,100,0,1,0,200,100,100,100,0,0,0,100,0Z"/><path class="cls-2" d="M85.39,57.28v45.2c0,2.43.1,4.91.28,7.44a20.26,20.26,0,0,0,1.65,6.89,11.47,11.47,0,0,0,4.36,5c2,1.28,4.77,1.93,8.38,1.93s6.37-.65,8.32-1.93a12,12,0,0,0,4.35-5,19.4,19.4,0,0,0,1.71-6.89c.18-2.53.28-5,.28-7.44V57.28h21.49v48.18q0,19.4-8.87,28.33t-27.28,8.93q-18.42,0-27.34-8.93t-8.93-28.33V57.28Z"/></svg>