<svg id="Layer_1" data-name="Layer 1" xmlns="http://www.w3.org/2000/svg" viewBox="0 0 600 200"><defs><style>.cls-1{fill:#de0000;}</style></defs><title>utosia-c</title><path class="cls-1" d="M37.18,3.1V150.83c0,11.31,3.41,17.36,11.83,17.36,8.92,0,11.66-6.89,11.66-17.36V3.1H98.06V148.41c0,34.39-15.63,51.39-49.62,51.39C15.07,199.8,0,183.36,0,148.1V3.1Z"/><path class="cls-1" d="M138.6,36.09h-28V3.1h93v33H175.48v161H138.6Z"/><path class="cls-1" d="M312.72,55v90c0,38.49-17.93,55-51.5,55C229.36,200,213,183.08,213,145.38V54c0-37.46,20.38-53.81,50-53.81C292.69.19,312.72,16.26,312.72,55Zm-62.38-4.2V150c0,12,4.07,18.23,12.32,18.23,8.61,0,12.51-5.67,12.51-18.42V50.51c0-12.12-3.32-18.32-12.61-18.32C254.69,32.19,250.34,37.93,250.34,50.8Z"/><path class="cls-1" d="M363.43,137.3v13.44c0,12.75,3.14,18.68,11.56,18.68s10.51-8.78,10.51-17.94c0-18.31-3.41-23.61-23-40.18-21.63-18.51-32.75-29.47-32.75-58C329.73,25.54,338.82,0,375.19,0c38.63,0,44.33,26.61,44.33,48.82V60H384.64V48.36c0-11.77-1.91-17.59-9.21-17.59-6.82,0-9,5.92-9,16.91,0,11.68,2.1,17.45,18,30,28.25,22.41,38.38,35,38.38,66.95,0,30.37-10.28,55.4-48.43,55.4-36.63,0-47.08-22.32-47.08-51.07V137.3Z"/><path class="cls-1" d="M476,3.1v194H439.13V3.1Z"/><path class="cls-1" d="M532.36,150.92l-4.73,46.17H490l27.15-194H572.2l27.8,194H561.58l-5.29-46.17ZM553.15,118c-2.73-24.83-6.55-62.59-8.35-81.16h-1.45c-.66,13.52-5.22,57.17-7.77,81.16Z"/></svg>