<svg id="Layer_1" data-name="Layer 1" xmlns="http://www.w3.org/2000/svg" viewBox="0 0 500 200"><defs><style>.cls-1{fill:#1403ff;}</style></defs><title>ztos-c</title><path class="cls-1" d="M5.33,165.16l38.05-45c11.88-13.79,19.45-21.36,33.89-34.52l.45-.63H24.63l8-41.93H142.8L137,76.52l-36.57,42.93c-13.32,15.7-21.86,24.32-34,34.8l-.16.63H125.2l-8,41.93H0Z"/><path class="cls-1" d="M230.11,0l-7.76,43.05h29.57L244.86,81H215.15l-9.47,49a97.86,97.86,0,0,0-1.87,15.24c0,7.86,3.56,12.46,12.17,12.46a107.85,107.85,0,0,0,11.74-.46l-6.42,39.47C214.66,199,203.19,200,193.54,200c-27.44,0-40.88-14-40.88-35.38A135.67,135.67,0,0,1,155.57,138l10.74-57H148.48l6.9-37.94h18l5.78-31.12Z"/><path class="cls-1" d="M386,100.61c0,57.36-35.91,99.06-86.09,99.06-39.35,0-60.79-26.54-60.79-60.58,0-54.7,35-99.28,87.06-99.28C366.53,39.81,386,68.77,386,100.61ZM289.84,138c0,13,4.76,23.08,16.54,23.08,19.19,0,28.91-38.15,28.91-62,0-11.24-4.35-20.73-16.08-20.73C299.62,78.39,289.69,117.31,289.84,138Z"/><path class="cls-1" d="M389.49,152.86c8.29,4.08,22.74,9.68,36.57,9.53,10.05-.15,14.59-4.62,14.59-10.47s-4.16-10.25-16.66-17.19c-16.2-9.11-29.05-22.18-29.05-40.24,0-32.46,27.24-54.68,67-54.68,17.62,0,30.67,3.32,38,7.41L489,83.09a66.13,66.13,0,0,0-27.48-6c-10.15,0-16.8,3.69-16.8,10.77,0,4.78,4.94,9.17,15.11,14.48,16.91,9.93,31.86,22.6,31.86,41.89,0,35.66-28.47,55.14-69.65,55.14-18.4,0-35.65-4.89-44.12-11.09Z"/></svg>